<svg width="470" height="112" viewBox="0 0 470 112" fill="none" xmlns="http://www.w3.org/2000/svg">
<circle cx="56" cy="56" r="56" fill="black"/>
<path fill-rule="evenodd" clip-rule="evenodd" d="M14.2695 67.082C13.6437 64.7197 13.2132 62.278 12.9963 59.7751H99.0038C98.7869 62.278 98.3564 64.7197 97.7306 67.082H14.2695ZM15.4594 70.8591C16.3185 73.202 17.3748 75.4497 18.6083 77.582H93.3918C94.6253 75.4497 95.6816 73.202 96.5407 70.8591H15.4594ZM28.4693 89.248C25.6848 86.9399 23.195 84.2886 21.0647 81.3591H90.9353C88.805 84.2886 86.3152 86.9399 83.5308 89.248H28.4693ZM33.7972 93.0251C40.2844 96.9236 47.8804 99.1654 56 99.1654C64.1197 99.1654 71.7157 96.9236 78.2029 93.0251H56.073H33.7972ZM14.8696 42.8591C13.5472 47.002 12.8334 51.4167 12.8334 55.998H99.1667C99.1666 51.2776 98.4089 46.7341 97.0084 42.4825V42.8591H14.8696ZM95.7259 39.082H16.2741C18.3994 34.0977 21.4353 29.5947 25.1728 25.7821H86.8273C90.5648 29.5947 93.6007 34.0977 95.7259 39.082ZM56 12.832C66.038 12.832 75.2756 16.2582 82.6074 22.005H29.3927C36.7244 16.2582 45.9621 12.832 56 12.832Z" fill="url(#paint0_linear_502_111)"/>
<path d="M150.552 77.832C147.992 77.832 145.389 76.7013 142.744 74.44L142.232 77H133.016L141.72 36.296L151.192 35.016L143.512 70.92C144.707 71.7733 145.923 72.2 147.16 72.2C149.592 72.2 151.725 70.792 153.56 67.976C155.437 65.16 156.888 61.576 157.912 57.224C158.936 52.872 159.448 48.4773 159.448 44.04C159.448 39.8587 158.616 36.808 156.952 34.888C155.331 32.9253 153.048 31.944 150.104 31.944C146.904 31.944 144.024 32.584 141.464 33.864C138.947 35.1013 136.963 36.8933 135.512 39.24C134.061 41.5867 133.336 44.3387 133.336 47.496C133.336 49.0747 133.485 50.184 133.784 50.824C134.083 51.4213 134.232 51.7627 134.232 51.848C132.013 51.848 130.307 51.3787 129.112 50.44C127.96 49.5013 127.384 47.9867 127.384 45.896C127.384 42.9947 128.472 40.2427 130.648 37.64C132.824 35.0373 135.725 32.9467 139.352 31.368C143.021 29.7893 146.968 29 151.192 29C157.037 29 161.347 30.728 164.12 34.184C166.893 37.64 168.28 42.056 168.28 47.432C168.28 52.296 167.448 57.096 165.784 61.832C164.163 66.5253 161.987 70.3653 159.256 73.352C156.525 76.3387 153.624 77.832 150.552 77.832ZM177.118 77.384C174.686 77.384 172.659 76.552 171.038 74.888C169.416 73.224 168.605 70.6213 168.605 67.08C168.605 63.9227 169.224 60.616 170.462 57.16C171.742 53.6613 173.619 50.7173 176.094 48.328C178.611 45.896 181.598 44.68 185.054 44.68C186.803 44.68 188.104 44.9787 188.958 45.576C189.811 46.1733 190.238 46.9627 190.238 47.944V48.392L190.942 45H200.158L195.55 66.76C195.379 67.4 195.294 68.0827 195.294 68.808C195.294 70.6427 196.168 71.56 197.918 71.56C199.112 71.56 200.136 71.0053 200.99 69.896C201.886 68.7867 202.59 67.336 203.102 65.544H205.79C204.211 70.152 202.248 73.288 199.902 74.952C197.598 76.5733 195.272 77.384 192.926 77.384C191.134 77.384 189.683 76.8933 188.574 75.912C187.507 74.888 186.867 73.416 186.654 71.496C185.416 73.2453 184.03 74.6747 182.494 75.784C181 76.8507 179.208 77.384 177.118 77.384ZM181.278 71.176C182.344 71.176 183.39 70.6853 184.414 69.704C185.48 68.68 186.206 67.2933 186.59 65.544L189.662 51.08C189.662 50.5253 189.448 49.992 189.022 49.48C188.595 48.9253 187.934 48.648 187.038 48.648C185.331 48.648 183.795 49.6507 182.43 51.656C181.064 53.6187 179.998 56.008 179.23 58.824C178.462 61.5973 178.078 64.0507 178.078 66.184C178.078 68.3173 178.376 69.6827 178.974 70.28C179.614 70.8773 180.382 71.176 181.278 71.176ZM213.813 41.544C212.405 41.544 211.21 41.0533 210.229 40.072C209.248 39.0907 208.757 37.896 208.757 36.488C208.757 35.08 209.248 33.8853 210.229 32.904C211.21 31.88 212.405 31.368 213.813 31.368C215.221 31.368 216.416 31.88 217.397 32.904C218.421 33.8853 218.933 35.08 218.933 36.488C218.933 37.896 218.421 39.0907 217.397 40.072C216.416 41.0533 215.221 41.544 213.813 41.544ZM209.461 77.384C207.413 77.384 205.749 76.744 204.469 75.464C203.232 74.184 202.613 72.264 202.613 69.704C202.613 68.6373 202.784 67.2507 203.125 65.544L207.477 45H216.693L212.085 66.76C211.914 67.4 211.829 68.0827 211.829 68.808C211.829 69.6613 212.021 70.28 212.405 70.664C212.832 71.0053 213.514 71.176 214.453 71.176C215.69 71.176 216.842 70.664 217.909 69.64C218.976 68.5733 219.744 67.208 220.213 65.544H222.901C221.322 70.152 219.296 73.288 216.821 74.952C214.346 76.5733 211.893 77.384 209.461 77.384ZM226.524 77.384C224.476 77.384 222.812 76.744 221.532 75.464C220.294 74.184 219.675 72.264 219.675 69.704C219.675 68.6373 219.846 67.2507 220.188 65.544L227.036 33.48L236.508 32.2L229.148 66.76C228.977 67.4 228.892 68.0827 228.892 68.808C228.892 69.6613 229.084 70.28 229.468 70.664C229.894 71.0053 230.577 71.176 231.516 71.176C232.753 71.176 233.905 70.664 234.972 69.64C236.038 68.5733 236.806 67.208 237.276 65.544H239.964C238.385 70.152 236.358 73.288 233.884 74.952C231.409 76.5733 228.956 77.384 226.524 77.384ZM247.234 93C245.229 93 243.458 92.3387 241.922 91.016C240.429 89.736 239.682 88.0933 239.682 86.088C239.682 84.2107 240.151 82.6747 241.09 81.48C242.029 80.2853 243.245 79.3467 244.738 78.664C246.231 77.9813 248.237 77.256 250.754 76.488L251.394 73.672C249.218 76.1467 246.615 77.384 243.586 77.384C241.538 77.384 239.874 76.744 238.594 75.464C237.357 74.184 236.738 72.264 236.738 69.704C236.738 68.6373 236.909 67.2507 237.25 65.544L241.602 45H250.818L246.21 66.76C246.082 67.272 246.018 67.8053 246.018 68.36C246.018 70.2373 246.658 71.176 247.938 71.176C249.133 71.176 250.157 70.6853 251.01 69.704C251.863 68.68 252.546 67.2933 253.058 65.544L257.41 45H266.69L258.882 82.12C258.029 86.216 256.514 89.0533 254.338 90.632C252.205 92.2107 249.837 93 247.234 93ZM245.762 87.304C246.53 87.304 247.255 86.8987 247.938 86.088C248.621 85.32 249.154 84.0613 249.538 82.312L250.306 78.536C248.045 79.304 246.295 80.2 245.058 81.224C243.821 82.248 243.202 83.5707 243.202 85.192C243.202 85.704 243.458 86.1733 243.97 86.6C244.482 87.0693 245.079 87.304 245.762 87.304ZM308.467 78.088C305.139 78.088 303.475 76.6587 303.475 73.8C303.475 72.8613 303.603 71.7947 303.859 70.6C304.157 69.3627 304.563 67.784 305.075 65.864C305.672 63.8587 306.12 62.152 306.419 60.744C306.717 59.336 306.867 58.0773 306.867 56.968C306.867 54.0667 305.587 52.616 303.027 52.616C302.344 52.616 301.64 52.7013 300.915 52.872L295.795 77H286.579L295.283 36.296L304.755 35.016L301.619 49.8H302.131C303.795 49.8 305.331 49.224 306.739 48.072C308.147 46.92 309.235 45.4907 310.003 43.784C310.813 42.0347 311.219 40.328 311.219 38.664C311.219 36.7013 310.621 35.1013 309.427 33.864C308.275 32.584 306.525 31.944 304.179 31.944C300.723 31.944 297.693 32.5627 295.091 33.8C292.488 35.0373 290.461 36.8293 289.01 39.176C287.603 41.5227 286.899 44.296 286.899 47.496C286.899 49.0747 287.048 50.184 287.347 50.824C287.645 51.4213 287.795 51.7627 287.795 51.848C285.491 51.848 283.763 51.3787 282.611 50.44C281.501 49.4587 280.947 47.8587 280.947 45.64C280.947 42.9093 282.056 40.264 284.275 37.704C286.536 35.1013 289.416 33.0107 292.915 31.432C296.413 29.8107 299.912 29 303.411 29C306.611 29 309.299 29.4693 311.475 30.408C313.651 31.3467 315.272 32.6053 316.339 34.184C317.405 35.72 317.939 37.4053 317.939 39.24C317.939 41.2453 317.32 43.2507 316.083 45.256C314.845 47.2613 313.16 48.904 311.027 50.184C312.648 50.6533 313.779 51.4427 314.419 52.552C315.101 53.6187 315.443 54.9627 315.443 56.584C315.443 57.8213 315.293 59.144 314.995 60.552C314.696 61.9173 314.269 63.624 313.715 65.672C313.373 66.9947 313.053 68.296 312.755 69.576C312.456 70.856 312.307 71.9227 312.307 72.776C312.307 73.7573 312.52 74.632 312.947 75.4C313.416 76.168 314.035 76.7013 314.803 77C312.2 77.7253 310.088 78.088 308.467 78.088ZM328.344 77.256C325.187 77.256 322.691 76.4453 320.856 74.824C319.021 73.2027 318.104 70.6427 318.104 67.144C318.104 64.2427 318.701 61.0213 319.896 57.48C321.091 53.9387 323.011 50.888 325.656 48.328C328.301 45.7253 331.629 44.424 335.64 44.424C341.101 44.424 343.832 47.8373 343.832 54.664V54.728C343.96 54.7707 344.195 54.792 344.536 54.792C345.944 54.792 347.565 54.4293 349.4 53.704C351.235 52.936 352.899 52.0187 354.392 50.952L354.968 52.68C353.731 54.0027 352.109 55.1333 350.104 56.072C348.141 56.968 345.987 57.608 343.64 57.992C343.299 61.8747 342.424 65.2667 341.016 68.168C339.608 71.0693 337.795 73.3093 335.576 74.888C333.357 76.4667 330.947 77.256 328.344 77.256ZM330.904 71.496C331.928 71.496 332.952 70.92 333.976 69.768C335 68.5733 335.896 66.9733 336.664 64.968C337.432 62.92 337.987 60.6587 338.328 58.184C337.176 57.928 336.6 57.032 336.6 55.496C336.6 53.7467 337.261 52.5947 338.584 52.04C338.499 50.632 338.285 49.672 337.944 49.16C337.603 48.6053 337.005 48.328 336.152 48.328C334.744 48.328 333.379 49.352 332.056 51.4C330.733 53.448 329.667 55.9013 328.856 58.76C328.045 61.6187 327.64 64.136 327.64 66.312C327.64 68.36 327.875 69.7467 328.344 70.472C328.813 71.1547 329.667 71.496 330.904 71.496ZM353.461 77.384C351.413 77.384 349.749 76.744 348.469 75.464C347.232 74.184 346.613 72.264 346.613 69.704C346.613 68.6373 346.784 67.2507 347.125 65.544L351.477 45H360.693L356.085 66.76C355.957 67.4 355.893 67.9973 355.893 68.552C355.893 70.3013 356.533 71.176 357.813 71.176C359.008 71.176 360.032 70.6853 360.885 69.704C361.738 68.68 362.421 67.2933 362.933 65.544L367.285 45H376.501L371.893 66.76C371.722 67.4 371.637 68.0827 371.637 68.808C371.637 69.6613 371.829 70.28 372.213 70.664C372.64 71.0053 373.322 71.176 374.261 71.176C375.456 71.176 376.48 70.664 377.333 69.64C378.229 68.616 378.933 67.2507 379.445 65.544H382.133C380.554 70.152 378.592 73.288 376.245 74.952C373.941 76.5733 371.616 77.384 369.269 77.384C367.434 77.384 365.962 76.872 364.853 75.848C363.786 74.824 363.146 73.3093 362.933 71.304C361.482 73.6507 359.946 75.2507 358.325 76.104C356.746 76.9573 355.125 77.384 353.461 77.384ZM385.774 77.384C383.726 77.384 382.062 76.744 380.782 75.464C379.544 74.184 378.925 72.264 378.925 69.704C378.925 68.6373 379.096 67.2507 379.438 65.544L383.278 47.56H381.166L381.678 45H383.79L385.71 36.168L395.182 34.888L393.006 45H396.846L396.333 47.56H392.494L388.398 66.76C388.227 67.4 388.142 68.0827 388.142 68.808C388.142 69.6613 388.334 70.28 388.718 70.664C389.144 71.0053 389.827 71.176 390.766 71.176C392.003 71.176 393.155 70.664 394.222 69.64C395.288 68.5733 396.056 67.208 396.526 65.544H399.214C397.635 70.152 395.608 73.288 393.134 74.952C390.659 76.5733 388.206 77.384 385.774 77.384ZM407.188 41.544C405.78 41.544 404.585 41.0533 403.604 40.072C402.623 39.0907 402.132 37.896 402.132 36.488C402.132 35.08 402.623 33.8853 403.604 32.904C404.585 31.88 405.78 31.368 407.188 31.368C408.596 31.368 409.791 31.88 410.772 32.904C411.796 33.8853 412.308 35.08 412.308 36.488C412.308 37.896 411.796 39.0907 410.772 40.072C409.791 41.0533 408.596 41.544 407.188 41.544ZM402.836 77.384C400.788 77.384 399.124 76.744 397.844 75.464C396.607 74.184 395.988 72.264 395.988 69.704C395.988 68.6373 396.159 67.2507 396.5 65.544L400.852 45H410.068L405.46 66.76C405.289 67.4 405.204 68.0827 405.204 68.808C405.204 69.6613 405.396 70.28 405.78 70.664C406.207 71.0053 406.889 71.176 407.828 71.176C409.065 71.176 410.217 70.664 411.284 69.64C412.351 68.5733 413.119 67.208 413.588 65.544H416.276C414.697 70.152 412.671 73.288 410.196 74.952C407.721 76.5733 405.268 77.384 402.836 77.384ZM436.667 77.384C434.064 77.384 432.144 76.7013 430.907 75.336C429.712 73.928 429.115 72.2 429.115 70.152C429.115 69.256 429.221 68.2533 429.435 67.144C429.648 65.992 429.861 64.8827 430.075 63.816C430.331 62.7493 430.501 62.0667 430.587 61.768C430.928 60.2747 431.248 58.8027 431.547 57.352C431.845 55.9013 431.995 54.728 431.995 53.832C431.995 51.656 431.227 50.568 429.691 50.568C428.581 50.568 427.6 51.1227 426.747 52.232C425.893 53.2987 425.211 54.7067 424.699 56.456L420.347 77H411.13L417.915 45H427.131L426.427 48.328C428.56 45.9387 431.056 44.744 433.915 44.744C436.091 44.744 437.819 45.3413 439.099 46.536C440.379 47.7307 441.019 49.544 441.019 51.976C441.019 53.2133 440.869 54.6 440.571 56.136C440.272 57.6293 439.845 59.464 439.291 61.64C438.949 62.9627 438.629 64.264 438.331 65.544C438.075 66.7813 437.947 67.7627 437.947 68.488C437.947 69.3413 438.139 70.0027 438.523 70.472C438.907 70.9413 439.568 71.176 440.507 71.176C441.787 71.176 442.811 70.728 443.579 69.832C444.347 68.8933 445.115 67.464 445.882 65.544H448.571C446.992 70.2373 445.157 73.3947 443.067 75.016C441.019 76.5947 438.885 77.384 436.667 77.384ZM454.899 77.384C451.784 77.384 449.352 76.5733 447.603 74.952C445.854 73.288 444.979 70.7067 444.979 67.208C444.979 64.264 445.555 61.0213 446.707 57.48C447.859 53.9387 449.736 50.888 452.339 48.328C454.942 45.7253 458.248 44.424 462.259 44.424C466.952 44.424 469.299 46.472 469.299 50.568C469.299 52.9573 468.616 55.1547 467.251 57.16C465.886 59.1653 464.072 60.7867 461.811 62.024C459.55 63.2187 457.139 63.9013 454.579 64.072C454.494 65.0107 454.451 65.6507 454.451 65.992C454.451 69.5333 455.774 71.304 458.419 71.304C459.614 71.304 460.894 70.984 462.259 70.344C463.624 69.704 464.862 68.8933 465.971 67.912C464.819 74.2267 461.128 77.384 454.899 77.384ZM455.027 61C456.648 60.9573 458.163 60.424 459.571 59.4C461.022 58.376 462.174 57.0747 463.027 55.496C463.923 53.8747 464.371 52.1893 464.371 50.44C464.371 48.6907 463.838 47.816 462.771 47.816C461.278 47.816 459.784 49.1813 458.291 51.912C456.84 54.6 455.752 57.6293 455.027 61Z" fill="black"/>
<defs>
<linearGradient id="paint0_linear_502_111" x1="56" y1="89.7226" x2="56" y2="4.46849" gradientUnits="userSpaceOnUse">
<stop stop-color="#D32626"/>
<stop offset="1" stop-color="#F5A31A"/>
</linearGradient>
</defs>
</svg>
